<?xml version="1.0" encoding="UTF-8" standalone="no"?>
<svg
   xmlns:dc="http://purl.org/dc/elements/1.1/"
   xmlns:cc="http://creativecommons.org/ns#"
   xmlns:rdf="http://www.w3.org/1999/02/22-rdf-syntax-ns#"
   xmlns:svg="http://www.w3.org/2000/svg"
   xmlns="http://www.w3.org/2000/svg"
   viewBox="0 0 793.73859 1122.5197"
   height="1122.5197"
   width="793.73859"
   xml:space="preserve"
   id="svg2"
   version="1.1"><metadata
     id="metadata8"><rdf:RDF><cc:Work
         rdf:about=""><dc:format>image/svg+xml</dc:format><dc:type
           rdf:resource="http://purl.org/dc/dcmitype/StillImage" /></cc:Work></rdf:RDF></metadata><defs
     id="defs6"><clipPath
       id="clipPath18"
       clipPathUnits="userSpaceOnUse"><path
         style="clip-rule:evenodd"
         id="path16"
         d="M 0,0.028 H 595.275 V 841.889 H 0 Z" /></clipPath></defs><g
     transform="matrix(1.3333333,0,0,-1.3333333,0,1122.5197)"
     id="g10"><g
       id="g12"><g
         clip-path="url(#clipPath18)"
         id="g14"><g
           id="g20"><text
             id="text24"
             style="font-variant:normal;font-weight:normal;font-size:10px;font-family:LiberationMono;-inkscape-font-specification:LiberationMono;writing-mode:lr-tb;fill:#000000;fill-opacity:1;fill-rule:nonzero;stroke:none"
             transform="matrix(1,0,0,-1,56.8,776.789)"><tspan
               id="tspan22"
               y="0"
               x="0 6 12 18 24 30 36 42 48 54 60 66 72 78 84 90 96 102 108 114 120 126 132 138 144 150 156 162 168 174 180 186 192 198 204 210 216 222 228 234 240 246 252 258 264 270 276 282 288 294 300 306 312 318 324 330 336 342 348 354 360 366 372 378 384 390 396 402 408 414 420 426 432 438 444 450 456 462 468">&lt;?xml version=&quot;1.0&quot; encoding=&quot;UTF-8&quot;?&gt;&lt;!DOCTYPE html PUBLIC &quot;-//W3C//DTD XHTML </tspan></text>
</g><g
           id="g26"><text
             id="text30"
             style="font-variant:normal;font-weight:normal;font-size:10px;font-family:LiberationMono;-inkscape-font-specification:LiberationMono;writing-mode:lr-tb;fill:#000000;fill-opacity:1;fill-rule:nonzero;stroke:none"
             transform="matrix(1,0,0,-1,56.8,765.489)"><tspan
               id="tspan28"
               y="0"
               x="0 6 12 18 24 30 36 42 48 54 60 66 72 78 84 90 96 102 108 114 120 126 132 138 144 150 156 162 168 174 180 186 192 198 204 210 216 222 228 234 240 246 252 258 264 270 276 282 288 294 300 306 312 318 324 330 336 342 348 354 360 366 372 378 384 390 396 402 408 414 420 426 432 438">1.0 Strict//EN&quot; &quot;http://www.w3.org/TR/xhtml1/DTD/xhtml1-strict.dtd&quot;&gt;&lt;html </tspan></text>
</g><g
           id="g32"><text
             id="text36"
             style="font-variant:normal;font-weight:normal;font-size:10px;font-family:LiberationMono;-inkscape-font-specification:LiberationMono;writing-mode:lr-tb;fill:#000000;fill-opacity:1;fill-rule:nonzero;stroke:none"
             transform="matrix(1,0,0,-1,56.8,754.089)"><tspan
               id="tspan34"
               y="0"
               x="0 6 12 18 24 30 36 42 48 54 60 66 72 78 84 90 96 102 108 114 120 126 132 138 144 150 156 162 168 174 180 186 192 198 204 210 216 222 228 234 240 246 252 258 264 270 276 282 288 294 300 306 312 318 324 330 336 342 348 354 360 366 372 378 384 390 396 402 408 414 420 426 432 438 444 450 456 462 468">xmlns=&quot;http://www.w3.org/1999/xhtml&quot; lang=&quot;it&quot;&gt;&lt;head&gt;&lt;meta http-equiv=&quot;Content-</tspan></text>
</g><g
           id="g38"><text
             id="text42"
             style="font-variant:normal;font-weight:normal;font-size:10px;font-family:LiberationMono;-inkscape-font-specification:LiberationMono;writing-mode:lr-tb;fill:#000000;fill-opacity:1;fill-rule:nonzero;stroke:none"
             transform="matrix(1,0,0,-1,56.8,742.789)"><tspan
               id="tspan40"
               y="0"
               x="0 6 12 18 24 30 36 42 48 54 60 66 72 78 84 90 96 102 108 114 120 126 132 138 144 150 156 162 168 174 180 186 192 198 204 210 216 222 228 234 240 246 252 258 264 270 276 282 288 294 300 306 312 318 324 330 336 342 348 354 360 366 372 378 384 390 396 402 408 414 420 426 432 438 444 450 456">Type&quot; content=&quot;text/html;charset=UTF-8&quot;/&gt;&lt;link rel=&quot;stylesheet&quot; href=&quot;jacoco-</tspan></text>
</g><g
           id="g44"><text
             id="text48"
             style="font-variant:normal;font-weight:normal;font-size:10px;font-family:LiberationMono;-inkscape-font-specification:LiberationMono;writing-mode:lr-tb;fill:#000000;fill-opacity:1;fill-rule:nonzero;stroke:none"
             transform="matrix(1,0,0,-1,56.8,731.389)"><tspan
               id="tspan46"
               y="0"
               x="0 6 12 18 24 30 36 42 48 54 60 66 72 78 84 90 96 102 108 114 120 126 132 138 144 150 156 162 168 174 180 186 192 198 204 210 216 222 228 234 240 246 252 258 264 270 276 282 288 294 300 306 312 318 324 330 336 342 348 354 360 366 372 378 384 390 396 402 408 414 420 426 432 438 444 450 456 462">resources/report.css&quot; type=&quot;text/css&quot;/&gt;&lt;link rel=&quot;shortcut icon&quot; href=&quot;jacoco-</tspan></text>
</g><g
           id="g50"><text
             id="text54"
             style="font-variant:normal;font-weight:normal;font-size:10px;font-family:LiberationMono;-inkscape-font-specification:LiberationMono;writing-mode:lr-tb;fill:#000000;fill-opacity:1;fill-rule:nonzero;stroke:none"
             transform="matrix(1,0,0,-1,56.8,720.089)"><tspan
               id="tspan52"
               y="0"
               x="0 6 12 18 24 30 36 42 48 54 60 66 72 78 84 90 96 102 108 114 120 126 132 138 144 150 156 162 168 174 180 186 192 198 204 210 216 222 228 234 240 246 252 258 264 270 276 282 288 294 300 306 312 318 324 330 336 342 348 354 360 366 372 378 384 390 396 402 408 414 420 426 432 438 444">resources/report.gif&quot; type=&quot;image/gif&quot;/&gt;&lt;title&gt;roman-number&lt;/title&gt;&lt;script </tspan></text>
</g><g
           id="g56"><text
             id="text60"
             style="font-variant:normal;font-weight:normal;font-size:10px;font-family:LiberationMono;-inkscape-font-specification:LiberationMono;writing-mode:lr-tb;fill:#000000;fill-opacity:1;fill-rule:nonzero;stroke:none"
             transform="matrix(1,0,0,-1,56.8,708.689)"><tspan
               id="tspan58"
               y="0"
               x="0 6 12 18 24 30 36 42 48 54 60 66 72 78 84 90 96 102 108 114 120 126 132 138 144 150 156 162 168 174 180 186 192 198 204 210 216 222 228 234 240 246 252 258 264 270 276 282 288 294 300 306 312 318 324 330 336 342 348 354 360 366 372 378 384 390 396 402 408 414 420 426 432 438 444 450">type=&quot;text/javascript&quot; src=&quot;jacoco-resources/sort.js&quot;&gt;&lt;/script&gt;&lt;/head&gt;&lt;body </tspan></text>
</g><g
           id="g62"><text
             id="text66"
             style="font-variant:normal;font-weight:normal;font-size:10px;font-family:LiberationMono;-inkscape-font-specification:LiberationMono;writing-mode:lr-tb;fill:#000000;fill-opacity:1;fill-rule:nonzero;stroke:none"
             transform="matrix(1,0,0,-1,56.8,697.389)"><tspan
               id="tspan64"
               y="0"
               x="0 6 12 18 24 30 36 42 48 54 60 66 72 78 84 90 96 102 108 114 120 126 132 138 144 150 156 162 168 174 180 186 192 198 204 210 216 222 228 234 240 246 252 258 264 270 276 282 288 294 300 306 312 318 324 330 336 342 348 354 360 366 372 378 384 390 396 402 408 414 420 426 432 438 444 450 456 462">onload=&quot;initialSort(['breadcrumb', 'coveragetable'])&quot;&gt;&lt;div class=&quot;breadcrumb&quot; </tspan></text>
</g><g
           id="g68"><text
             id="text72"
             style="font-variant:normal;font-weight:normal;font-size:10px;font-family:LiberationMono;-inkscape-font-specification:LiberationMono;writing-mode:lr-tb;fill:#000000;fill-opacity:1;fill-rule:nonzero;stroke:none"
             transform="matrix(1,0,0,-1,56.8,685.989)"><tspan
               id="tspan70"
               y="0"
               x="0 6 12 18 24 30 36 42 48 54 60 66 72 78 84 90 96 102 108 114 120 126 132 138 144 150 156 162 168 174 180 186 192 198 204 210 216 222 228 234 240 246 252 258 264 270 276 282 288 294 300 306 312 318 324 330 336 342 348 354 360 366 372 378 384 390">id=&quot;breadcrumb&quot;&gt;&lt;span class=&quot;info&quot;&gt;&lt;a href=&quot;jacoco-sessions.html&quot; </tspan></text>
</g><g
           id="g74"><text
             id="text78"
             style="font-variant:normal;font-weight:normal;font-size:10px;font-family:LiberationMono;-inkscape-font-specification:LiberationMono;writing-mode:lr-tb;fill:#000000;fill-opacity:1;fill-rule:nonzero;stroke:none"
             transform="matrix(1,0,0,-1,56.8,674.689)"><tspan
               id="tspan76"
               y="0"
               x="0 6 12 18 24 30 36 42 48 54 60 66 72 78 84 90 96 102 108 114 120 126 132 138 144 150 156 162 168 174 180 186 192 198 204 210 216 222 228 234 240 246 252 258">class=&quot;el_session&quot;&gt;Sessions&lt;/a&gt;&lt;/span&gt;&lt;span </tspan></text>
</g><g
           id="g80"><text
             id="text84"
             style="font-variant:normal;font-weight:normal;font-size:10px;font-family:LiberationMono;-inkscape-font-specification:LiberationMono;writing-mode:lr-tb;fill:#000000;fill-opacity:1;fill-rule:nonzero;stroke:none"
             transform="matrix(1,0,0,-1,56.8,663.289)"><tspan
               id="tspan82"
               y="0"
               x="0 6 12 18 24 30 36 42 48 54 60 66 72 78 84 90 96 102 108 114 120 126 132 138 144 150 156 162 168 174 180 186 192 198 204 210 216 222 228 234 240 246 252 258 264 270 276 282 288 294 300 306 312 318 324 330 336 342 348 354 360 366 372 378 384 390 396 402 408 414 420">class=&quot;el_report&quot;&gt;roman-number&lt;/span&gt;&lt;/div&gt;&lt;h1&gt;roman-number&lt;/h1&gt;&lt;table </tspan></text>
</g><g
           id="g86"><text
             id="text90"
             style="font-variant:normal;font-weight:normal;font-size:10px;font-family:LiberationMono;-inkscape-font-specification:LiberationMono;writing-mode:lr-tb;fill:#000000;fill-opacity:1;fill-rule:nonzero;stroke:none"
             transform="matrix(1,0,0,-1,56.8,651.989)"><tspan
               id="tspan88"
               y="0"
               x="0 6 12 18 24 30 36 42 48 54 60 66 72 78 84 90 96 102 108 114 120 126 132 138 144 150 156 162 168 174 180 186 192 198 204 210 216 222 228 234 240 246 252 258 264 270 276 282 288 294 300 306 312 318 324 330 336 342 348 354 360 366 372 378 384 390 396">class=&quot;coverage&quot; cellspacing=&quot;0&quot; id=&quot;coveragetable&quot;&gt;&lt;thead&gt;&lt;tr&gt;&lt;td </tspan></text>
</g><g
           id="g92"><text
             id="text96"
             style="font-variant:normal;font-weight:normal;font-size:10px;font-family:LiberationMono;-inkscape-font-specification:LiberationMono;writing-mode:lr-tb;fill:#000000;fill-opacity:1;fill-rule:nonzero;stroke:none"
             transform="matrix(1,0,0,-1,56.8,640.589)"><tspan
               id="tspan94"
               y="0"
               x="0 6 12 18 24 30 36 42 48 54 60 66 72 78 84 90 96 102 108 114 120 126 132 138 144 150 156 162 168 174 180 186 192 198 204 210 216 222 228 234 240 246 252 258 264 270 276 282 288 294 300 306 312 318 324 330 336 342 348 354 360 366 372 378 384 390 396 402 408 414 420 426 432 438 444 450 456 462 468">class=&quot;sortable&quot; id=&quot;a&quot; onclick=&quot;toggleSort(this)&quot;&gt;Element&lt;/td&gt;&lt;td class=&quot;down </tspan></text>
</g><g
           id="g98"><text
             id="text102"
             style="font-variant:normal;font-weight:normal;font-size:10px;font-family:LiberationMono;-inkscape-font-specification:LiberationMono;writing-mode:lr-tb;fill:#000000;fill-opacity:1;fill-rule:nonzero;stroke:none"
             transform="matrix(1,0,0,-1,56.8,629.289)"><tspan
               id="tspan100"
               y="0"
               x="0 6 12 18 24 30 36 42 48 54 60 66 72 78 84 90 96 102 108 114 120 126 132 138 144 150 156 162 168 174 180 186 192 198 204 210 216 222 228 234 240 246 252 258 264 270 276 282 288 294 300 306 312 318 324 330 336 342 348 354 360 366 372 378 384 390 396 402 408 414 420 426 432 438 444 450">sortable bar&quot; id=&quot;b&quot; onclick=&quot;toggleSort(this)&quot;&gt;Missed Instructions&lt;/td&gt;&lt;td </tspan></text>
</g><g
           id="g104"><text
             id="text108"
             style="font-variant:normal;font-weight:normal;font-size:10px;font-family:LiberationMono;-inkscape-font-specification:LiberationMono;writing-mode:lr-tb;fill:#000000;fill-opacity:1;fill-rule:nonzero;stroke:none"
             transform="matrix(1,0,0,-1,56.8,617.889)"><tspan
               id="tspan106"
               y="0"
               x="0 6 12 18 24 30 36 42 48 54 60 66 72 78 84 90 96 102 108 114 120 126 132 138 144 150 156 162 168 174 180 186 192 198 204 210 216 222 228 234 240 246 252 258 264 270 276 282 288 294 300 306 312 318 324 330 336 342 348 354 360 366 372 378 384 390 396 402 408">class=&quot;sortable ctr2&quot; id=&quot;c&quot; onclick=&quot;toggleSort(this)&quot;&gt;Cov.&lt;/td&gt;&lt;td </tspan></text>
</g><g
           id="g110"><text
             id="text114"
             style="font-variant:normal;font-weight:normal;font-size:10px;font-family:LiberationMono;-inkscape-font-specification:LiberationMono;writing-mode:lr-tb;fill:#000000;fill-opacity:1;fill-rule:nonzero;stroke:none"
             transform="matrix(1,0,0,-1,56.8,606.589)"><tspan
               id="tspan112"
               y="0"
               x="0 6 12 18 24 30 36 42 48 54 60 66 72 78 84 90 96 102 108 114 120 126 132 138 144 150 156 162 168 174 180 186 192 198 204 210 216 222 228 234 240 246 252 258 264 270 276 282 288 294 300 306 312 318 324 330 336 342 348 354 360 366 372 378 384 390 396 402 408 414 420 426 432 438 444 450 456 462 468">class=&quot;sortable bar&quot; id=&quot;d&quot; onclick=&quot;toggleSort(this)&quot;&gt;Missed Branches&lt;/td&gt;&lt;td </tspan></text>
</g><g
           id="g116"><text
             id="text120"
             style="font-variant:normal;font-weight:normal;font-size:10px;font-family:LiberationMono;-inkscape-font-specification:LiberationMono;writing-mode:lr-tb;fill:#000000;fill-opacity:1;fill-rule:nonzero;stroke:none"
             transform="matrix(1,0,0,-1,56.8,595.189)"><tspan
               id="tspan118"
               y="0"
               x="0 6 12 18 24 30 36 42 48 54 60 66 72 78 84 90 96 102 108 114 120 126 132 138 144 150 156 162 168 174 180 186 192 198 204 210 216 222 228 234 240 246 252 258 264 270 276 282 288 294 300 306 312 318 324 330 336 342 348 354 360 366 372 378 384 390 396 402 408">class=&quot;sortable ctr2&quot; id=&quot;e&quot; onclick=&quot;toggleSort(this)&quot;&gt;Cov.&lt;/td&gt;&lt;td </tspan></text>
</g><g
           id="g122"><text
             id="text126"
             style="font-variant:normal;font-weight:normal;font-size:10px;font-family:LiberationMono;-inkscape-font-specification:LiberationMono;writing-mode:lr-tb;fill:#000000;fill-opacity:1;fill-rule:nonzero;stroke:none"
             transform="matrix(1,0,0,-1,56.8,583.889)"><tspan
               id="tspan124"
               y="0"
               x="0 6 12 18 24 30 36 42 48 54 60 66 72 78 84 90 96 102 108 114 120 126 132 138 144 150 156 162 168 174 180 186 192 198 204 210 216 222 228 234 240 246 252 258 264 270 276 282 288 294 300 306 312 318 324 330 336 342 348 354 360 366 372 378 384 390 396 402 408 414 420">class=&quot;sortable ctr1&quot; id=&quot;f&quot; onclick=&quot;toggleSort(this)&quot;&gt;Missed&lt;/td&gt;&lt;td </tspan></text>
</g><g
           id="g128"><text
             id="text132"
             style="font-variant:normal;font-weight:normal;font-size:10px;font-family:LiberationMono;-inkscape-font-specification:LiberationMono;writing-mode:lr-tb;fill:#000000;fill-opacity:1;fill-rule:nonzero;stroke:none"
             transform="matrix(1,0,0,-1,56.8,572.489)"><tspan
               id="tspan130"
               y="0"
               x="0 6 12 18 24 30 36 42 48 54 60 66 72 78 84 90 96 102 108 114 120 126 132 138 144 150 156 162 168 174 180 186 192 198 204 210 216 222 228 234 240 246 252 258 264 270 276 282 288 294 300 306 312 318 324 330 336 342 348 354 360 366 372 378 384 390 396 402 408">class=&quot;sortable ctr2&quot; id=&quot;g&quot; onclick=&quot;toggleSort(this)&quot;&gt;Cxty&lt;/td&gt;&lt;td </tspan></text>
</g><g
           id="g134"><text
             id="text138"
             style="font-variant:normal;font-weight:normal;font-size:10px;font-family:LiberationMono;-inkscape-font-specification:LiberationMono;writing-mode:lr-tb;fill:#000000;fill-opacity:1;fill-rule:nonzero;stroke:none"
             transform="matrix(1,0,0,-1,56.8,561.189)"><tspan
               id="tspan136"
               y="0"
               x="0 6 12 18 24 30 36 42 48 54 60 66 72 78 84 90 96 102 108 114 120 126 132 138 144 150 156 162 168 174 180 186 192 198 204 210 216 222 228 234 240 246 252 258 264 270 276 282 288 294 300 306 312 318 324 330 336 342 348 354 360 366 372 378 384 390 396 402 408 414 420">class=&quot;sortable ctr1&quot; id=&quot;h&quot; onclick=&quot;toggleSort(this)&quot;&gt;Missed&lt;/td&gt;&lt;td </tspan></text>
</g><g
           id="g140"><text
             id="text144"
             style="font-variant:normal;font-weight:normal;font-size:10px;font-family:LiberationMono;-inkscape-font-specification:LiberationMono;writing-mode:lr-tb;fill:#000000;fill-opacity:1;fill-rule:nonzero;stroke:none"
             transform="matrix(1,0,0,-1,56.8,549.789)"><tspan
               id="tspan142"
               y="0"
               x="0 6 12 18 24 30 36 42 48 54 60 66 72 78 84 90 96 102 108 114 120 126 132 138 144 150 156 162 168 174 180 186 192 198 204 210 216 222 228 234 240 246 252 258 264 270 276 282 288 294 300 306 312 318 324 330 336 342 348 354 360 366 372 378 384 390 396 402 408 414">class=&quot;sortable ctr2&quot; id=&quot;i&quot; onclick=&quot;toggleSort(this)&quot;&gt;Lines&lt;/td&gt;&lt;td </tspan></text>
</g><g
           id="g146"><text
             id="text150"
             style="font-variant:normal;font-weight:normal;font-size:10px;font-family:LiberationMono;-inkscape-font-specification:LiberationMono;writing-mode:lr-tb;fill:#000000;fill-opacity:1;fill-rule:nonzero;stroke:none"
             transform="matrix(1,0,0,-1,56.8,538.489)"><tspan
               id="tspan148"
               y="0"
               x="0 6 12 18 24 30 36 42 48 54 60 66 72 78 84 90 96 102 108 114 120 126 132 138 144 150 156 162 168 174 180 186 192 198 204 210 216 222 228 234 240 246 252 258 264 270 276 282 288 294 300 306 312 318 324 330 336 342 348 354 360 366 372 378 384 390 396 402 408 414 420">class=&quot;sortable ctr1&quot; id=&quot;j&quot; onclick=&quot;toggleSort(this)&quot;&gt;Missed&lt;/td&gt;&lt;td </tspan></text>
</g><g
           id="g152"><text
             id="text156"
             style="font-variant:normal;font-weight:normal;font-size:10px;font-family:LiberationMono;-inkscape-font-specification:LiberationMono;writing-mode:lr-tb;fill:#000000;fill-opacity:1;fill-rule:nonzero;stroke:none"
             transform="matrix(1,0,0,-1,56.8,527.089)"><tspan
               id="tspan154"
               y="0"
               x="0 6 12 18 24 30 36 42 48 54 60 66 72 78 84 90 96 102 108 114 120 126 132 138 144 150 156 162 168 174 180 186 192 198 204 210 216 222 228 234 240 246 252 258 264 270 276 282 288 294 300 306 312 318 324 330 336 342 348 354 360 366 372 378 384 390 396 402 408 414 420 426">class=&quot;sortable ctr2&quot; id=&quot;k&quot; onclick=&quot;toggleSort(this)&quot;&gt;Methods&lt;/td&gt;&lt;td </tspan></text>
</g><g
           id="g158"><text
             id="text162"
             style="font-variant:normal;font-weight:normal;font-size:10px;font-family:LiberationMono;-inkscape-font-specification:LiberationMono;writing-mode:lr-tb;fill:#000000;fill-opacity:1;fill-rule:nonzero;stroke:none"
             transform="matrix(1,0,0,-1,56.8,515.789)"><tspan
               id="tspan160"
               y="0"
               x="0 6 12 18 24 30 36 42 48 54 60 66 72 78 84 90 96 102 108 114 120 126 132 138 144 150 156 162 168 174 180 186 192 198 204 210 216 222 228 234 240 246 252 258 264 270 276 282 288 294 300 306 312 318 324 330 336 342 348 354 360 366 372 378 384 390 396 402 408 414 420">class=&quot;sortable ctr1&quot; id=&quot;l&quot; onclick=&quot;toggleSort(this)&quot;&gt;Missed&lt;/td&gt;&lt;td </tspan></text>
</g><g
           id="g164"><text
             id="text168"
             style="font-variant:normal;font-weight:normal;font-size:10px;font-family:LiberationMono;-inkscape-font-specification:LiberationMono;writing-mode:lr-tb;fill:#000000;fill-opacity:1;fill-rule:nonzero;stroke:none"
             transform="matrix(1,0,0,-1,56.8,504.389)"><tspan
               id="tspan166"
               y="0"
               x="0 6 12 18 24 30 36 42 48 54 60 66 72 78 84 90 96 102 108 114 120 126 132 138 144 150 156 162 168">class=&quot;sortable ctr2&quot; id=&quot;m&quot; </tspan></text>
</g><g
           id="g170"><text
             id="text174"
             style="font-variant:normal;font-weight:normal;font-size:10px;font-family:LiberationMono;-inkscape-font-specification:LiberationMono;writing-mode:lr-tb;fill:#000000;fill-opacity:1;fill-rule:nonzero;stroke:none"
             transform="matrix(1,0,0,-1,56.8,493.089)"><tspan
               id="tspan172"
               y="0"
               x="0 6 12 18 24 30 36 42 48 54 60 66 72 78 84 90 96 102 108 114 120 126 132 138 144 150 156 162 168 174 180 186 192 198 204 210 216 222 228 234 240 246 252 258 264 270 276 282 288 294 300 306 312 318 324 330 336 342 348 354 360 366 372 378 384 390 396 402 408 414 420 426 432 438 444 450 456 462 468 474">onclick=&quot;toggleSort(this)&quot;&gt;Classes&lt;/td&gt;&lt;/tr&gt;&lt;/thead&gt;&lt;tfoot&gt;&lt;tr&gt;&lt;td&gt;Total&lt;/td&gt;&lt;td</tspan></text>
</g><g
           id="g176"><text
             id="text180"
             style="font-variant:normal;font-weight:normal;font-size:10px;font-family:LiberationMono;-inkscape-font-specification:LiberationMono;writing-mode:lr-tb;fill:#000000;fill-opacity:1;fill-rule:nonzero;stroke:none"
             transform="matrix(1,0,0,-1,56.8,481.689)"><tspan
               id="tspan178"
               y="0"
               x="0 6 12 18 24 30 36 42 48 54 60 66 72 78 84 90 96 102 108 114 120 126 132 138 144 150 156 162 168 174 180 186 192 198 204 210 216 222 228 234 240 246 252 258 264 270 276 282 288 294 300 306 312 318 324 330 336 342 348 354 360 366 372 378 384 390 396 402 408 414 420 426">class=&quot;bar&quot;&gt;10 of 343&lt;/td&gt;&lt;td class=&quot;ctr2&quot;&gt;97%&lt;/td&gt;&lt;td class=&quot;bar&quot;&gt;0 of </tspan></text>
</g><g
           id="g182"><text
             id="text186"
             style="font-variant:normal;font-weight:normal;font-size:10px;font-family:LiberationMono;-inkscape-font-specification:LiberationMono;writing-mode:lr-tb;fill:#000000;fill-opacity:1;fill-rule:nonzero;stroke:none"
             transform="matrix(1,0,0,-1,56.8,470.389)"><tspan
               id="tspan184"
               y="0"
               x="0 6 12 18 24 30 36 42 48 54 60 66 72 78 84 90 96 102 108 114 120 126 132 138 144 150 156 162 168 174 180 186 192 198 204 210 216 222 228 234 240 246 252 258 264 270 276 282 288 294 300 306 312 318 324 330 336 342 348 354">16&lt;/td&gt;&lt;td class=&quot;ctr2&quot;&gt;100%&lt;/td&gt;&lt;td class=&quot;ctr1&quot;&gt;3&lt;/td&gt;&lt;td </tspan></text>
</g><g
           id="g188"><text
             id="text192"
             style="font-variant:normal;font-weight:normal;font-size:10px;font-family:LiberationMono;-inkscape-font-specification:LiberationMono;writing-mode:lr-tb;fill:#000000;fill-opacity:1;fill-rule:nonzero;stroke:none"
             transform="matrix(1,0,0,-1,56.8,458.989)"><tspan
               id="tspan190"
               y="0"
               x="0 6 12 18 24 30 36 42 48 54 60 66 72 78 84 90 96 102 108 114 120 126 132 138 144 150 156 162 168 174 180 186 192 198 204 210 216 222 228 234 240 246 252 258 264 270 276 282 288 294 300 306 312 318 324 330 336 342 348 354 360 366 372 378 384 390 396 402 408 414 420">class=&quot;ctr2&quot;&gt;17&lt;/td&gt;&lt;td class=&quot;ctr1&quot;&gt;3&lt;/td&gt;&lt;td class=&quot;ctr2&quot;&gt;82&lt;/td&gt;&lt;td </tspan></text>
</g><g
           id="g194"><text
             id="text198"
             style="font-variant:normal;font-weight:normal;font-size:10px;font-family:LiberationMono;-inkscape-font-specification:LiberationMono;writing-mode:lr-tb;fill:#000000;fill-opacity:1;fill-rule:nonzero;stroke:none"
             transform="matrix(1,0,0,-1,56.8,447.689)"><tspan
               id="tspan196"
               y="0"
               x="0 6 12 18 24 30 36 42 48 54 60 66 72 78 84 90 96 102 108 114 120 126 132 138 144 150 156 162 168 174 180 186 192 198 204 210 216 222 228 234 240 246 252 258 264 270 276 282 288 294 300 306 312 318 324 330 336 342 348 354 360 366 372 378 384 390 396 402 408">class=&quot;ctr1&quot;&gt;3&lt;/td&gt;&lt;td class=&quot;ctr2&quot;&gt;6&lt;/td&gt;&lt;td class=&quot;ctr1&quot;&gt;0&lt;/td&gt;&lt;td </tspan></text>
</g><g
           id="g200"><text
             id="text204"
             style="font-variant:normal;font-weight:normal;font-size:10px;font-family:LiberationMono;-inkscape-font-specification:LiberationMono;writing-mode:lr-tb;fill:#000000;fill-opacity:1;fill-rule:nonzero;stroke:none"
             transform="matrix(1,0,0,-1,56.8,436.289)"><tspan
               id="tspan202"
               y="0"
               x="0 6 12 18 24 30 36 42 48 54 60 66 72 78 84 90 96 102 108 114 120 126 132 138 144 150 156 162 168 174 180 186 192 198 204 210 216 222 228 234 240 246 252 258 264 270 276 282 288 294 300 306 312 318 324 330 336 342">class=&quot;ctr2&quot;&gt;2&lt;/td&gt;&lt;/tr&gt;&lt;/tfoot&gt;&lt;tbody&gt;&lt;tr&gt;&lt;td id=&quot;a0&quot;&gt;&lt;a </tspan></text>
</g><g
           id="g206"><text
             id="text210"
             style="font-variant:normal;font-weight:normal;font-size:10px;font-family:LiberationMono;-inkscape-font-specification:LiberationMono;writing-mode:lr-tb;fill:#000000;fill-opacity:1;fill-rule:nonzero;stroke:none"
             transform="matrix(1,0,0,-1,56.8,424.989)"><tspan
               id="tspan208"
               y="0"
               x="0 6 12 18 24 30 36 42 48 54 60 66 72 78 84 90 96 102 108 114 120 126 132 138 144 150 156 162 168 174 180 186 192 198 204 210 216 222 228 234 240 246 252 258 264 270 276 282 288 294 300 306 312 318 324 330 336 342 348 354 360 366 372 378 384 390 396 402 408 414 420 426 432 438 444 450 456">href=&quot;it.unipd.mtss/index.html&quot; class=&quot;el_package&quot;&gt;it.unipd.mtss&lt;/a&gt;&lt;/td&gt;&lt;td </tspan></text>
</g><g
           id="g212"><text
             id="text216"
             style="font-variant:normal;font-weight:normal;font-size:10px;font-family:LiberationMono;-inkscape-font-specification:LiberationMono;writing-mode:lr-tb;fill:#000000;fill-opacity:1;fill-rule:nonzero;stroke:none"
             transform="matrix(1,0,0,-1,56.8,413.589)"><tspan
               id="tspan214"
               y="0"
               x="0 6 12 18 24 30 36 42 48 54 60 66 72 78 84 90 96 102 108 114 120 126 132 138 144 150 156 162 168 174 180 186 192 198 204 210 216 222 228 234 240 246 252 258 264 270 276 282 288 294 300 306 312 318 324 330 336 342 348 354 360 366 372 378 384 390 396 402 408 414 420 426 432 438 444 450 456 462 468 474">class=&quot;bar&quot; id=&quot;b0&quot;&gt;&lt;img src=&quot;jacoco-resources/redbar.gif&quot; width=&quot;3&quot; height=&quot;10&quot;</tspan></text>
</g><g
           id="g218"><text
             id="text222"
             style="font-variant:normal;font-weight:normal;font-size:10px;font-family:LiberationMono;-inkscape-font-specification:LiberationMono;writing-mode:lr-tb;fill:#000000;fill-opacity:1;fill-rule:nonzero;stroke:none"
             transform="matrix(1,0,0,-1,56.8,402.289)"><tspan
               id="tspan220"
               y="0"
               x="0 6 12 18 24 30 36 42 48 54 60 66 72 78 84 90 96 102 108 114 120 126 132 138 144 150 156 162 168 174 180 186 192 198 204 210 216 222 228 234 240 246 252 258 264 270 276 282 288 294 300 306 312 318 324 330 336 342 348 354 360 366 372 378 384 390 396 402 408 414 420 426 432 438">title=&quot;10&quot; alt=&quot;10&quot;/&gt;&lt;img src=&quot;jacoco-resources/greenbar.gif&quot; width=&quot;116&quot; </tspan></text>
</g><g
           id="g224"><text
             id="text228"
             style="font-variant:normal;font-weight:normal;font-size:10px;font-family:LiberationMono;-inkscape-font-specification:LiberationMono;writing-mode:lr-tb;fill:#000000;fill-opacity:1;fill-rule:nonzero;stroke:none"
             transform="matrix(1,0,0,-1,56.8,390.889)"><tspan
               id="tspan226"
               y="0"
               x="0 6 12 18 24 30 36 42 48 54 60 66 72 78 84 90 96 102 108 114 120 126 132 138 144 150 156 162 168 174 180 186 192 198 204 210 216 222 228 234 240 246 252 258 264 270 276 282 288 294 300 306 312 318 324 330 336 342 348 354 360 366 372 378 384 390 396 402 408 414 420 426 432 438 444 450 456">height=&quot;10&quot; title=&quot;333&quot; alt=&quot;333&quot;/&gt;&lt;/td&gt;&lt;td class=&quot;ctr2&quot; id=&quot;c0&quot;&gt;97%&lt;/td&gt;&lt;td </tspan></text>
</g><g
           id="g230"><text
             id="text234"
             style="font-variant:normal;font-weight:normal;font-size:10px;font-family:LiberationMono;-inkscape-font-specification:LiberationMono;writing-mode:lr-tb;fill:#000000;fill-opacity:1;fill-rule:nonzero;stroke:none"
             transform="matrix(1,0,0,-1,56.8,379.589)"><tspan
               id="tspan232"
               y="0"
               x="0 6 12 18 24 30 36 42 48 54 60 66 72 78 84 90 96 102 108 114 120 126 132 138 144 150 156 162 168 174 180 186 192 198 204 210 216 222 228 234 240 246 252 258 264 270 276 282 288 294 300 306 312 318 324 330 336 342 348 354 360 366 372 378 384 390 396 402 408 414 420 426 432">class=&quot;bar&quot; id=&quot;d0&quot;&gt;&lt;img src=&quot;jacoco-resources/greenbar.gif&quot; width=&quot;120&quot; </tspan></text>
</g><g
           id="g236"><text
             id="text240"
             style="font-variant:normal;font-weight:normal;font-size:10px;font-family:LiberationMono;-inkscape-font-specification:LiberationMono;writing-mode:lr-tb;fill:#000000;fill-opacity:1;fill-rule:nonzero;stroke:none"
             transform="matrix(1,0,0,-1,56.8,368.189)"><tspan
               id="tspan238"
               y="0"
               x="0 6 12 18 24 30 36 42 48 54 60 66 72 78 84 90 96 102 108 114 120 126 132 138 144 150 156 162 168 174 180 186 192 198 204 210 216 222 228 234 240 246 252 258 264 270 276 282 288 294 300 306 312 318 324 330 336 342 348 354 360 366 372 378 384 390 396 402 408 414 420 426 432 438 444 450">height=&quot;10&quot; title=&quot;16&quot; alt=&quot;16&quot;/&gt;&lt;/td&gt;&lt;td class=&quot;ctr2&quot; id=&quot;e0&quot;&gt;100%&lt;/td&gt;&lt;td </tspan></text>
</g><g
           id="g242"><text
             id="text246"
             style="font-variant:normal;font-weight:normal;font-size:10px;font-family:LiberationMono;-inkscape-font-specification:LiberationMono;writing-mode:lr-tb;fill:#000000;fill-opacity:1;fill-rule:nonzero;stroke:none"
             transform="matrix(1,0,0,-1,56.8,356.889)"><tspan
               id="tspan244"
               y="0"
               x="0 6 12 18 24 30 36 42 48 54 60 66 72 78 84 90 96 102 108 114 120 126 132 138 144 150 156 162 168 174 180 186 192 198 204 210 216 222 228 234 240 246 252 258 264 270 276 282 288 294 300 306 312 318 324 330 336 342 348 354 360 366 372 378 384 390 396 402 408 414 420 426 432 438 444 450">class=&quot;ctr1&quot; id=&quot;f0&quot;&gt;3&lt;/td&gt;&lt;td class=&quot;ctr2&quot; id=&quot;g0&quot;&gt;17&lt;/td&gt;&lt;td class=&quot;ctr1&quot; </tspan></text>
</g><g
           id="g248"><text
             id="text252"
             style="font-variant:normal;font-weight:normal;font-size:10px;font-family:LiberationMono;-inkscape-font-specification:LiberationMono;writing-mode:lr-tb;fill:#000000;fill-opacity:1;fill-rule:nonzero;stroke:none"
             transform="matrix(1,0,0,-1,56.8,345.489)"><tspan
               id="tspan250"
               y="0"
               x="0 6 12 18 24 30 36 42 48 54 60 66 72 78 84 90 96 102 108 114 120 126 132 138 144 150 156 162 168 174 180 186 192 198 204 210 216 222 228 234 240 246 252 258 264 270 276 282 288 294 300 306 312 318 324 330 336 342 348 354 360 366 372 378 384 390 396 402 408 414 420 426 432 438 444 450 456 462 468 474">id=&quot;h0&quot;&gt;3&lt;/td&gt;&lt;td class=&quot;ctr2&quot; id=&quot;i0&quot;&gt;82&lt;/td&gt;&lt;td class=&quot;ctr1&quot; id=&quot;j0&quot;&gt;3&lt;/td&gt;&lt;td</tspan></text>
</g><g
           id="g254"><text
             id="text258"
             style="font-variant:normal;font-weight:normal;font-size:10px;font-family:LiberationMono;-inkscape-font-specification:LiberationMono;writing-mode:lr-tb;fill:#000000;fill-opacity:1;fill-rule:nonzero;stroke:none"
             transform="matrix(1,0,0,-1,56.8,334.189)"><tspan
               id="tspan256"
               y="0"
               x="0 6 12 18 24 30 36 42 48 54 60 66 72 78 84 90 96 102 108 114 120 126 132 138 144 150 156 162 168 174 180 186 192 198 204 210 216 222 228 234 240 246 252 258 264 270 276 282 288 294 300 306 312 318 324 330 336 342 348 354 360 366 372 378 384 390 396 402 408 414 420 426 432 438 444">class=&quot;ctr2&quot; id=&quot;k0&quot;&gt;6&lt;/td&gt;&lt;td class=&quot;ctr1&quot; id=&quot;l0&quot;&gt;0&lt;/td&gt;&lt;td class=&quot;ctr2&quot; </tspan></text>
</g><g
           id="g260"><text
             id="text264"
             style="font-variant:normal;font-weight:normal;font-size:10px;font-family:LiberationMono;-inkscape-font-specification:LiberationMono;writing-mode:lr-tb;fill:#000000;fill-opacity:1;fill-rule:nonzero;stroke:none"
             transform="matrix(1,0,0,-1,56.8,322.789)"><tspan
               id="tspan262"
               y="0"
               x="0 6 12 18 24 30 36 42 48 54 60 66 72 78 84 90 96 102 108 114 120 126 132 138 144 150 156 162 168 174 180 186 192 198 204 210 216 222 228 234 240 246 252 258 264 270 276 282 288 294 300 306 312 318 324 330 336 342 348 354 360">id=&quot;m0&quot;&gt;2&lt;/td&gt;&lt;/tr&gt;&lt;/tbody&gt;&lt;/table&gt;&lt;div class=&quot;footer&quot;&gt;&lt;span </tspan></text>
</g><g
           id="g266"><text
             id="text270"
             style="font-variant:normal;font-weight:normal;font-size:10px;font-family:LiberationMono;-inkscape-font-specification:LiberationMono;writing-mode:lr-tb;fill:#000000;fill-opacity:1;fill-rule:nonzero;stroke:none"
             transform="matrix(1,0,0,-1,56.8,311.489)"><tspan
               id="tspan268"
               y="0"
               x="0 6 12 18 24 30 36 42 48 54 60 66 72 78 84 90 96 102 108 114 120 126 132 138 144 150 156 162 168 174 180 186 192 198 204 210 216 222 228 234 240 246 252 258 264 270 276 282 288 294 300 306 312 318 324 330 336 342 348 354 360 366 372 378 384 390 396 402 408 414 420 426 432 438 444 450 456">class=&quot;right&quot;&gt;Created with &lt;a href=&quot;http://www.jacoco.org/jacoco&quot;&gt;JaCoCo&lt;/a&gt; </tspan></text>
</g><g
           id="g272"><text
             id="text276"
             style="font-variant:normal;font-weight:normal;font-size:10px;font-family:LiberationMono;-inkscape-font-specification:LiberationMono;writing-mode:lr-tb;fill:#000000;fill-opacity:1;fill-rule:nonzero;stroke:none"
             transform="matrix(1,0,0,-1,56.8,300.089)"><tspan
               id="tspan274"
               y="0"
               x="0 6 12 18 24 30 36 42 48 54 60 66 72 78 84 90 96 102 108 114 120 126 132 138 144 150 156 162 168 174 180 186 192 198 204 210 216 222 228 234 240 246 252 258 264 270">0.8.12.202403310830&lt;/span&gt;&lt;/div&gt;&lt;/body&gt;&lt;/html&gt;</tspan></text>
</g></g></g></g></svg>